HIERARCHY
ROOT Hips
{
  OFFSET 5.72205e-005 65.662 3.42586
  CHANNELS 6 Xposition Yposition Zposition Zrotation Xrotation Yrotation
  JOINT Chest
  {
    OFFSET 0 8.7983 -4.7612
    CHANNELS 3 Zrotation Xrotation Yrotation
    JOINT Chest2
    {
      OFFSET 0 8.0291 0.4195
      CHANNELS 3 Zrotation Xrotation Yrotation
      JOINT Chest3
      {
        OFFSET 0 9.9351 -2.2114
        CHANNELS 3 Zrotation Xrotation Yrotation
        JOINT Neck
        {
          OFFSET 0 22.3885 -0.4656
          CHANNELS 3 Zrotation Xrotation Yrotation
          JOINT Head
          {
            OFFSET -0.0001 12.643 3.4389
            CHANNELS 3 Zrotation Xrotation Yrotation
            End Site
            {
              OFFSET 0.0001 17.6655 0.5274
            }
          }
        }
        JOINT LeftCollar
        {
          OFFSET 2.2603 21.606 7.4023
          CHANNELS 3 Zrotation Xrotation Yrotation
          JOINT LeftShoulder
          {
            OFFSET 13.5163 -1.1332 -5.0146
            CHANNELS 3 Zrotation Xrotation Yrotation
            JOINT LeftElbow
            {
              OFFSET -0.0995 -28.05 -0.2431
              CHANNELS 3 Zrotation Xrotation Yrotation
              JOINT LeftWrist
              {
                OFFSET 0.0679 -23.3996 -0.1402
                CHANNELS 3 Zrotation Xrotation Yrotation
                JOINT LeftFinger1
                {
                  OFFSET 0.7932 -9.069 2.5189
                  CHANNELS 3 Zrotation Xrotation Yrotation
                  JOINT LeftFinger11
                  {
                    OFFSET -0.8272 -3.3923 0.5977
                    CHANNELS 3 Zrotation Xrotation Yrotation
                    JOINT LeftFinger12
                    {
                      OFFSET -0.5649 -2.3158 0.4082
                      CHANNELS 3 Zrotation Xrotation Yrotation
                      End Site
                      {
                        OFFSET -0.4919 -1.6479 0.2673
                      }
                    }
                  }
                }
                JOINT LeftFinger2
                {
                  OFFSET 0.9159 -9.2044 0.2193
                  CHANNELS 3 Zrotation Xrotation Yrotation
                  JOINT LeftFinger21
                  {
                    OFFSET 0.0117 -4.1944 -0.0248
                    CHANNELS 3 Zrotation Xrotation Yrotation
                    JOINT LeftFinger22
                    {
                      OFFSET 0.0071 -2.3249 -0.0142
                      CHANNELS 3 Zrotation Xrotation Yrotation
                      End Site
                      {
                        OFFSET -0.1475 -2.0882 0.0028
                      }
                    }
                  }
                }
                JOINT LeftFinger3
                {
                  OFFSET 0.6113 -8.7231 -2.0637
                  CHANNELS 3 Zrotation Xrotation Yrotation
                  JOINT LeftFinger31
                  {
                    OFFSET -0.1927 -3.8059 -0.2383
                    CHANNELS 3 Zrotation Xrotation Yrotation
                    JOINT LeftFinger32
                    {
                      OFFSET -0.1091 -2.1688 -0.1362
                      CHANNELS 3 Zrotation Xrotation Yrotation
                      End Site
                      {
                        OFFSET -0.2358 -1.9176 -0.0906
                      }
                    }
                  }
                }
                JOINT LeftFinger4
                {
                  OFFSET -0.6151 -8.0947 -3.5641
                  CHANNELS 3 Zrotation Xrotation Yrotation
                  JOINT LeftFinger41
                  {
                    OFFSET -0.4882 -2.341 -0.6462
                    CHANNELS 3 Zrotation Xrotation Yrotation
                    JOINT LeftFinger42
                    {
                      OFFSET -0.3575 -1.7167 -0.4742
                      CHANNELS 3 Zrotation Xrotation Yrotation
                      End Site
                      {
                        OFFSET -0.4187 -1.5237 -0.3496
                      }
                    }
                  }
                }
                JOINT LeftFinger0
                {
                  OFFSET -1.42 -1.8761 1.4223
                  CHANNELS 3 Zrotation Xrotation Yrotation
                  JOINT LeftFinger01
                  {
                    OFFSET -1.1471 -3.4929 2.6334
                    CHANNELS 3 Zrotation Xrotation Yrotation
                    JOINT LeftFinger02
                    {
                      OFFSET -0.823 -2.3 1.6571
                      CHANNELS 3 Zrotation Xrotation Yrotation
                      End Site
                      {
                        OFFSET -0.5822 -1.6914 1.1582
                      }
                    }
                  }
                }
              }
            }
          }
        }
        JOINT RightCollar
        {
          OFFSET -2.2603 21.606 7.4023
          CHANNELS 3 Zrotation Xrotation Yrotation
          JOINT RightShoulder
          {
            OFFSET -13.5187 -1.1334 -5.0155
            CHANNELS 3 Zrotation Xrotation Yrotation
            JOINT RightElbow
            {
              OFFSET 0.0994 -28.0499 -0.2431
              CHANNELS 3 Zrotation Xrotation Yrotation
              JOINT RightWrist
              {
                OFFSET -0.0679 -23.3996 -0.1402
                CHANNELS 3 Zrotation Xrotation Yrotation
                JOINT RightFinger1
                {
                  OFFSET -0.7932 -9.0691 2.5189
                  CHANNELS 3 Zrotation Xrotation Yrotation
                  JOINT RightFinger11
                  {
                    OFFSET 0.8272 -3.3923 0.5977
                    CHANNELS 3 Zrotation Xrotation Yrotation
                    JOINT RightFinger12
                    {
                      OFFSET 0.565 -2.3158 0.4082
                      CHANNELS 3 Zrotation Xrotation Yrotation
                      End Site
                      {
                        OFFSET 0.4919 -1.6479 0.2673
                      }
                    }
                  }
                }
                JOINT RightFinger2
                {
                  OFFSET -0.916 -9.2044 0.2193
                  CHANNELS 3 Zrotation Xrotation Yrotation
                  JOINT RightFinger21
                  {
                    OFFSET -0.0117 -4.1944 -0.0248
                    CHANNELS 3 Zrotation Xrotation Yrotation
                    JOINT RightFinger22
                    {
                      OFFSET -0.0071 -2.3249 -0.0142
                      CHANNELS 3 Zrotation Xrotation Yrotation
                      End Site
                      {
                        OFFSET 0.1475 -2.0882 0.0028
                      }
                    }
                  }
                }
                JOINT RightFinger3
                {
                  OFFSET -0.6113 -8.7231 -2.0637
                  CHANNELS 3 Zrotation Xrotation Yrotation
                  JOINT RightFinger31
                  {
                    OFFSET 0.1927 -3.8059 -0.2383
                    CHANNELS 3 Zrotation Xrotation Yrotation
                    JOINT RightFinger32
                    {
                      OFFSET 0.1091 -2.1688 -0.1362
                      CHANNELS 3 Zrotation Xrotation Yrotation
                      End Site
                      {
                        OFFSET 0.2358 -1.9176 -0.0906
                      }
                    }
                  }
                }
                JOINT RightFinger4
                {
                  OFFSET 0.6151 -8.0947 -3.564
                  CHANNELS 3 Zrotation Xrotation Yrotation
                  JOINT RightFinger41
                  {
                    OFFSET 0.4882 -2.341 -0.6462
                    CHANNELS 3 Zrotation Xrotation Yrotation
                    JOINT RightFinger42
                    {
                      OFFSET 0.3574 -1.7166 -0.4742
                      CHANNELS 3 Zrotation Xrotation Yrotation
                      End Site
                      {
                        OFFSET 0.4187 -1.5237 -0.3496
                      }
                    }
                  }
                }
                JOINT RightFinger0
                {
                  OFFSET 1.4199 -1.8761 1.4221
                  CHANNELS 3 Zrotation Xrotation Yrotation
                  JOINT RightFinger01
                  {
                    OFFSET 1.1472 -3.4929 2.6336
                    CHANNELS 3 Zrotation Xrotation Yrotation
                    JOINT RightFinger02
                    {
                      OFFSET 0.8229 -2.3 1.6571
                      CHANNELS 3 Zrotation Xrotation Yrotation
                      End Site
                      {
                        OFFSET 0.5822 -1.6914 1.1582
                      }
                    }
                  }
                }
              }
            }
          }
        }
      }
    }
  }
  JOINT RightHip
  {
    OFFSET -9.412 3.9771 -0.7758
    CHANNELS 3 Zrotation Xrotation Yrotation
    JOINT RightKnee
    {
      OFFSET -0.7531 -40.938 0
      CHANNELS 3 Zrotation Xrotation Yrotation
      JOINT RightAnkle
      {
        OFFSET 0 -40.1986 0
        CHANNELS 3 Zrotation Xrotation Yrotation
        JOINT RightToe
        {
          OFFSET 0 -4.4182 9.239
          CHANNELS 3 Zrotation Xrotation Yrotation
          End Site
          {
            OFFSET 0 0 6.1981
          }
        }
      }
    }
  }
  JOINT LeftHip
  {
    OFFSET 9.4119 3.9773 -0.7758
    CHANNELS 3 Zrotation Xrotation Yrotation
    JOINT LeftKnee
    {
      OFFSET 0.7532 -40.9383 0
      CHANNELS 3 Zrotation Xrotation Yrotation
      JOINT LeftAnkle
      {
        OFFSET 0 -40.1986 0
        CHANNELS 3 Zrotation Xrotation Yrotation
        JOINT LeftToe
        {
          OFFSET 0 -4.4182 9.239
          CHANNELS 3 Zrotation Xrotation Yrotation
          End Site
          {
            OFFSET 0 0 6.1981
          }
        }
      }
    }
  }
}
MOTION
Frames:	4
Frame Time:	0.0333333
1.26229 2.60121 13.7248 -1.65145e-007 -87.8431 -2.08879e-007 -0.0486836 5.58328 -0.117283 -0.0864402 11.1666 -0.231434 -0.0864404 11.1667 -0.231435 -2.06117e-007 5.16887 -4.66646e-007 -1.92134e-007 2.09124 -5.21349e-009 15.0227 10.1502 -2.64475 -10.9057 37.2752 31.8799 -73.3468 -73.6155 -99.1088 -13.6407 8.89343 -25.3692 1.98785e-016 3.18055e-015 1.93318e-014 -1.59028e-015 4.77083e-015 1.2921e-014 -2.80007e-031 1.59028e-015 1.00883e-014 1.98785e-016 3.18055e-015 1.93318e-014 -0.0128318 0.00232253 8.94382e-005 -0 0 9.74045e-015 1.98785e-016 3.18055e-015 1.93318e-014 -0.0160449 0.00300173 0.000869446 5.96354e-016 0 -2.83268e-015 1.98785e-016 3.18055e-015 1.93318e-014 -0.0125795 0.00312125 0.00283759 1.98785e-016 4.77083e-015 -1.68967e-015 1.98785e-016 3.18055e-015 1.93318e-014 -1.59028e-015 4.77083e-015 1.2921e-014 -2.80007e-031 1.59028e-015 1.00883e-014 -15.9209 10.5419 -2.53339 6.63462 39.5735 -24.5036 76.8774 -75.4506 102.016 13.3355 8.6237 25.5768 3.97569e-016 0 -1.22253e-014 1.59028e-015 4.77083e-015 -9.34288e-015 2.78299e-015 0 -1.28216e-014 3.97569e-016 0 -1.22253e-014 0.0129532 0.00230016 -8.34239e-005 -1.59028e-015 0 -2.38542e-015 3.97569e-016 0 -1.22253e-014 0.0163379 0.00303496 -0.000870245 7.95139e-016 -1.59028e-015 -2.28602e-015 3.97569e-016 0 -1.22253e-014 0.0145942 0.00368492 -0.00326983 1.59028e-015 -3.18055e-015 -1.39149e-015 3.97569e-016 0 -1.22253e-014 1.59028e-015 4.77083e-015 -9.34288e-015 2.78299e-015 0 -1.28216e-014 -167.425 -50.9507 -140.628 176.235 66.2814 -177.627 -34.519 25.0763 56.8988 -4.01013e-006 -2.01521e-005 1.23164e-006 46.7588 -1.27917 -26.2358 -5.00236 -0.0410119 -3.02365 12.4977 -3.86843 28.411 3.18055e-015 -9.93923e-016 3.97569e-016 
1.26203 2.62056 13.7721 -2.12884e-007 -88.0014 -2.32414e-007 -0.0485772 5.55967 -0.117348 -0.0862644 11.1195 -0.231582 -0.0862645 11.1195 -0.231582 -2.44531e-007 4.99725 -7.82789e-007 -1.47109e-007 1.9987 6.53592e-008 15.2824 10.325 -2.64056 -11.1666 37.3035 32.0056 -73.9865 -73.5703 -99.7297 -13.7841 9.05029 -25.4029 1.78906e-015 -1.59028e-015 -8.29926e-015 3.97569e-016 -4.77083e-015 -8.49804e-015 3.97569e-016 -3.18055e-015 -2.23633e-015 1.78906e-015 -1.59028e-015 -8.29926e-015 -0.0128152 0.00232232 8.47437e-005 -2.18663e-015 1.59028e-015 -3.8266e-015 1.78906e-015 -1.59028e-015 -8.29926e-015 -0.0160377 0.00299344 0.00085196 -3.97569e-016 0 5.46658e-016 1.78906e-015 -1.59028e-015 -8.29926e-015 -0.0125775 0.00312573 0.00282729 -1.38073e-030 1.11319e-014 7.10655e-015 1.78906e-015 -1.59028e-015 -8.29926e-015 3.97569e-016 -4.77083e-015 -8.49804e-015 3.97569e-016 -3.18055e-015 -2.23633e-015 -16.1871 10.714 -2.54033 6.89425 39.6303 -24.6318 77.6312 -75.3977 102.75 13.4844 8.78609 25.6194 -1.98785e-015 -3.18055e-015 2.08724e-015 -4.03311e-006 2.27376e-006 3.50567e-006 -7.95139e-016 -3.18055e-015 1.59028e-015 -1.98785e-015 -3.18055e-015 2.08724e-015 0.0129339 0.00231093 -8.07511e-005 -2.20129e-006 8.55541e-007 -3.70653e-006 -1.98785e-015 -3.18055e-015 2.08724e-015 0.016342 0.0030422 -0.000869458 -5.29669e-031 4.77083e-015 6.36111e-015 -1.98785e-015 -3.18055e-015 2.08724e-015 0.0145859 0.00367815 -0.00326176 1.59028e-015 -3.18055e-015 -2.38542e-015 -1.98785e-015 -3.18055e-015 2.08724e-015 -4.03311e-006 2.27376e-006 3.50567e-006 -7.95139e-016 -3.18055e-015 1.59028e-015 -167.473 -51.1212 -140.633 176.261 66.2214 -177.648 -34.4945 24.9906 57.0883 6.36111e-015 1.04976e-006 6.36111e-015 46.7495 -1.17269 -26.3434 -5.00135 -0.045708 -3.06584 12.5098 -4.02085 28.3574 -2.13245e-006 7.29752e-006 1.61426e-007 
1.26229 2.60121 13.7248 -1.65145e-007 -87.8431 -2.08879e-007 -0.0486836 5.58328 -0.117283 -0.0864402 11.1666 -0.231434 -0.0864404 11.1667 -0.231435 -2.06117e-007 5.16887 -4.66646e-007 -1.92134e-007 2.09124 -5.21349e-009 15.0227 10.1502 -2.64475 -10.9056 37.2752 31.8799 -73.3469 -73.6154 -99.1089 -13.6407 8.89342 -25.3692 -4.17448e-015 1.59028e-015 -3.52843e-015 -2.18663e-015 -3.18055e-015 -5.46658e-016 -1.39149e-015 0 -1.09332e-015 -4.17448e-015 1.59028e-015 -3.52843e-015 -0.0128134 0.00232364 8.67291e-005 -1.19271e-015 0 -3.52843e-015 -4.17448e-015 1.59028e-015 -3.52843e-015 -0.0160709 0.00300102 0.000854622 -1.98785e-016 -1.59028e-015 1.68967e-015 -4.17448e-015 1.59028e-015 -3.52843e-015 -0.0125794 0.00312724 0.0028231 -5.96354e-016 -3.18055e-015 -4.96962e-017 -4.17448e-015 1.59028e-015 -3.52843e-015 -2.18663e-015 -3.18055e-015 -5.46658e-016 -1.39149e-015 0 -1.09332e-015 -15.9209 10.5419 -2.53339 6.63462 39.5735 -24.5036 76.8772 -75.4506 102.016 13.3355 8.6237 25.5768 -1.29735e-006 -2.53735e-007 -2.54697e-006 -2.01801e-006 2.05663e-006 1.75142e-006 2.56435e-006 -1.04285e-006 1.56112e-006 -1.29735e-006 -2.53735e-007 -2.54697e-006 0.0129446 0.00230951 -8.50273e-005 3.142e-006 1.0687e-005 -2.89963e-006 -1.29735e-006 -2.53735e-007 -2.54697e-006 0.0163392 0.00303855 -0.000869461 -5.48178e-007 -1.5485e-006 -3.31246e-006 -1.29735e-006 -2.53735e-007 -2.54697e-006 0.0145837 0.00368678 -0.00326245 1.86786e-007 1.42407e-006 5.4615e-006 -1.29735e-006 -2.53735e-007 -2.54697e-006 -2.01801e-006 2.05663e-006 1.75142e-006 2.56435e-006 -1.04285e-006 1.56112e-006 -167.425 -50.9507 -140.628 176.235 66.2814 -177.627 -34.519 25.0763 56.8988 1.13214e-005 -1.49711e-006 -5.70204e-006 46.7588 -1.27917 -26.2358 -5.00237 -0.0410266 -3.02365 12.4977 -3.8684 28.411 1.59028e-014 1.09332e-014 -1.59028e-015 
1.26283 2.5586 13.6206 -1.45565e-007 -87.4949 -1.16699e-007 -0.0489203 5.63517 -0.117145 -0.0868321 11.2705 -0.231119 -0.0868323 11.2705 -0.231119 -2.57647e-007 5.54654 -6.08354e-007 -6.27694e-009 2.29485 8.25749e-008 14.4512 9.76547 -2.65482 -10.3312 37.2124 31.6031 -71.9361 -73.7201 -97.7386 -13.3253 8.54835 -25.2945 -2.5842e-015 1.27222e-014 -2.08724e-015 -2.18663e-015 1.43125e-014 -2.03754e-015 -2.38542e-015 1.59028e-014 -1.98785e-015 -2.5842e-015 1.27222e-014 -2.08724e-015 -0.0128241 0.0023173 8.07774e-005 -1.39149e-015 0 1.19271e-015 -2.5842e-015 1.27222e-014 -2.08724e-015 -0.0160385 0.00299581 0.000858306 -7.95139e-016 -4.77083e-015 -5.86415e-015 -2.5842e-015 1.27222e-014 -2.08724e-015 -0.0126099 0.0031145 0.00282838 -7.05911e-007 -1.33036e-006 4.25367e-006 -2.5842e-015 1.27222e-014 -2.08724e-015 -2.18663e-015 1.43125e-014 -2.03754e-015 -2.38542e-015 1.59028e-014 -1.98785e-015 -15.3353 10.1631 -2.51727 6.06359 39.448 -24.2219 75.2169 -75.5724 100.399 13.0076 8.26654 25.4828 1.29497e-006 -2.98222e-007 2.5441e-006 3.97569e-016 -1.59028e-015 -7.95139e-016 -3.97569e-016 0 -3.8763e-015 1.29497e-006 -2.98222e-007 2.5441e-006 0.0129548 0.00232139 -9.80935e-005 -1.98785e-015 1.59028e-015 4.87022e-015 1.29497e-006 -2.98222e-007 2.5441e-006 0.0163344 0.00304567 -0.000880311 -1.59028e-015 1.59028e-015 1.10325e-014 1.29497e-006 -2.98222e-007 2.5441e-006 0.0145836 0.0036778 -0.00326623 -1.19271e-015 6.36111e-015 -4.47266e-015 1.29497e-006 -2.98222e-007 2.5441e-006 3.97569e-016 -1.59028e-015 -7.95139e-016 -3.97569e-016 0 -3.8763e-015 -167.318 -50.5759 -140.617 176.177 66.4136 -177.58 -34.5718 25.2636 56.4807 8.67319e-007 -2.26315e-006 -1.33772e-006 46.7743 -1.52671 -25.9989 -5.00445 -0.00168454 -2.92843 12.4708 -3.54817 28.5312 3.18055e-015 1.19271e-015 -7.95139e-016 
